<?xml version="1.0" encoding="utf-8"?>
<!-- Generator: Adobe Illustrator 24.1.0, SVG Export Plug-In . SVG Version: 6.00 Build 0)  -->
<svg version="1.1"
	 id="Groupe_76" inkscape:version="0.92.1 r15371" sodipodi:docname="QUE-SONTILS-DEVENUS-picto.svg" xmlns:cc="http://creativecommons.org/ns#" xmlns:dc="http://purl.org/dc/elements/1.1/" xmlns:inkscape="http://www.inkscape.org/namespaces/inkscape" xmlns:rdf="http://www.w3.org/1999/02/22-rdf-syntax-ns#" xmlns:sodipodi="http://sodipodi.sourceforge.net/DTD/sodipodi-0.dtd" xmlns:svg="http://www.w3.org/2000/svg"
	 xmlns="http://www.w3.org/2000/svg" xmlns:xlink="http://www.w3.org/1999/xlink" x="0px" y="0px" viewBox="0 0 751.5 712.8"
	 style="enable-background:new 0 0 751.5 712.8;" xml:space="preserve">
<style type="text/css">
	.st0{fill:none;}
	.st1{fill:#579AE2;}
	.st2{fill:#E38082;}
</style>
<sodipodi:namedview  bordercolor="#666666" borderopacity="1" fit-margin-bottom="0" fit-margin-left="0" fit-margin-right="0" fit-margin-top="0" gridtolerance="10" guidetolerance="10" id="namedview21" inkscape:current-layer="Groupe_76" inkscape:cx="-41.572433" inkscape:cy="315.37601" inkscape:pagecheckerboard="true" inkscape:pageopacity="0" inkscape:pageshadow="2" inkscape:window-height="968" inkscape:window-maximized="1" inkscape:window-width="1920" inkscape:window-x="0" inkscape:window-y="34" inkscape:zoom="0.62783823" objecttolerance="10" pagecolor="#ffffff" showgrid="false">
	</sodipodi:namedview>
<g id="g4544" transform="translate(0,209.50134)">
	<g id="g4520">
		<path id="Tracé_226" inkscape:connector-curvature="0" class="st0" d="M628,189.7c-27.5,0-49.8-22.3-49.8-49.8
			c0-27.5,22.3-49.8,49.8-49.8c27.5,0,49.8,22.3,49.8,49.8l0,0c0.1,27.4-22,49.7-49.4,49.8C628.3,189.7,628.1,189.7,628,189.7z"/>
		<circle id="Ellipse_7" class="st0" cx="445.9" cy="82.3" r="38.6"/>
		<path id="Tracé_227" inkscape:connector-curvature="0" class="st0" d="M61.7,329.3l-27.7,27.7c-4.2,3.9-10.6,3.9-14.8,0
			c-2-1.9-3.2-4.6-3.2-7.4c-0.1-2.8,1.1-5.5,3.2-7.4l0,0l27.7-27.6C51.5,319.8,56.4,324.7,61.7,329.3z"/>
		<path id="Tracé_228" inkscape:connector-curvature="0" class="st0" d="M365.3,157.2c3.9,4.2,8.1,8.1,12.5,11.6
			c-3.5,1.3-6.9,2.8-10.3,4.5C367.1,167.9,366.3,162.5,365.3,157.2z"/>
		<path id="Tracé_229" inkscape:connector-curvature="0" class="st1" d="M36.3,301.9c3.2,4.2,6.8,8.4,10.3,12.5l-27.3,27.7l0,0
			c-2,1.9-3.2,4.6-3.2,7.4c-0.1,2.8,1.1,5.5,3.2,7.4c4.2,3.9,10.6,3.9,14.8,0l27.7-27.7c4.2,3.5,8,7.1,12.5,10.3l-28.6,28.6
			c-5,5.1-11.9,7.9-19,7.7c-7.1-0.1-13.9-2.8-19-7.7c-4.9-5-7.7-11.7-7.7-18.6c0.1-7.1,2.8-13.9,7.7-19L36.3,301.9z"/>
		<path id="Tracé_230" inkscape:connector-curvature="0" class="st1" d="M81,310l-14.8-14.8l-19.3,19.3c-3.7-4-7.1-8.2-10.3-12.5
			L56.6,282c-18.9-26.5-29-58.2-28.9-90.7c0-86.5,70.4-156.9,156.9-156.9c85.5,0,155.3,68.8,156.6,154c-5.7,3.9-11.2,8.2-16.4,12.9
			c0.3-3.2,0.3-6.8,0.3-10.3c0-77.5-63-140.8-140.8-140.8s-140.8,64-140.8,141.5s63,140.8,140.8,140.8c28.8,0.1,56.9-8.8,80.4-25.4
			c-1.4,6.8-2.2,13.7-2.6,20.6c-52.7,30.4-118.2,27.4-167.9-7.7l-19.9,19.9c-4.2-3.2-8.4-6.8-12.5-10.3L81,310z"/>
		<path id="Tracé_231" inkscape:connector-curvature="0" class="st2" d="M184.2,106.8c-46.8,0-84.8,37.9-84.9,84.7
			c0,0.1,0,0.1,0,0.2c0,4.4-3.6,8-8,8s-8-3.6-8-8c0.1-55.7,45.2-100.9,101-101c4.4,0,8,3.6,8,8S188.7,106.8,184.2,106.8L184.2,106.8
			z"/>
		<path id="Tracé_232" inkscape:connector-curvature="0" class="st1" d="M628,216.7c68.2,0,123.5,55.3,123.5,123.5c0,4.4-3.6,8-8,8
			s-8-3.6-8-8c-0.1-59.3-48.1-107.3-107.4-107.4c-9.9,0.1-19.7,1.5-29.3,4.2c-3.2-4.7-6.6-9.2-10.3-13.5
			C601.2,219.1,614.5,216.8,628,216.7z"/>
		<path id="Tracé_233" inkscape:connector-curvature="0" class="st2" d="M693.6,140.2c0.1-36.3-29.3-65.8-65.6-65.9
			c-36.3-0.1-65.8,29.3-65.9,65.6s29.3,65.8,65.6,65.9c0.1,0,0.2,0,0.3,0C664.1,205.6,693.4,176.3,693.6,140.2z M677.5,140.2
			c-0.1,27.4-22.4,49.6-49.8,49.5c-27.4-0.1-49.6-22.4-49.5-49.8c0.1-27.3,22.2-49.4,49.5-49.5C655.2,90.4,677.5,112.7,677.5,140.2
			L677.5,140.2z"/>
		<path id="Tracé_234" inkscape:connector-curvature="0" class="st2" d="M414.5,158.5c10.3-1.7,20.7-2.5,31.2-2.6
			c10.4,0,20.9,0.9,31.2,2.6c42.1-17.2,62.2-65.3,45-107.4c-17.2-42.1-65.3-62.2-107.4-45s-62.2,65.3-45,107.4
			C377.9,134,394.1,150.2,414.5,158.5L414.5,158.5z M379.8,82.3c0-36.6,29.7-66.2,66.2-66.2s66.2,29.7,66.2,66.2
			s-29.7,66.2-66.2,66.2c0,0,0,0,0,0C409.4,148.5,379.8,118.9,379.8,82.3z"/>
		<path id="Tracé_235" inkscape:connector-curvature="0" class="st1" d="M305.2,340.2c0,4.4-3.5,8-7.9,8c-0.1,0-0.1,0-0.2,0
			c-3.5,0-6.5-2.2-7.7-5.5c5.6-3.9,10.9-8.1,16.1-12.5C305.5,333.4,305.2,337,305.2,340.2z"/>
		<path id="Tracé_236" inkscape:connector-curvature="0" class="st1" d="M602.6,340.2c0,4.4-3.6,8-8,8s-8-3.6-8-8
			c0.1-29.7-9.4-58.7-27-82.6c4.1-3.5,8.5-6.6,13.2-9.3C592.3,274.9,602.7,307.1,602.6,340.2L602.6,340.2z"/>
		<path id="Tracé_237" inkscape:connector-curvature="0" class="st1" d="M412.2,187.1c10.8,3.5,22.1,5.2,33.4,5.1
			c11.3-0.1,22.6-1.8,33.4-5.1c32.1,7.1,61.1,24,83,48.6c-4.5,2.9-9,6.1-13.2,9.3c-47.7-51.8-126.3-60.3-183.9-19.9
			c1.4-6.8,2.2-13.7,2.6-20.6C381.5,196.5,396.5,190.7,412.2,187.1z"/>
		<path id="Tracé_238" inkscape:connector-curvature="0" class="st1" d="M336.7,228c9.4-9.3,20-17.3,31.5-23.8
			c-0.4,6.9-1.2,13.8-2.6,20.6c-33.8,23.8-56.9,61.7-59.8,105.5c-5.1,4.5-10.4,8.7-16.1,12.5c-0.3-0.8-0.4-1.7-0.3-2.6
			c0-12.4,1.5-24.7,4.5-36.7C314.9,282.8,329.7,256.7,336.7,228z"/>
		<path id="Tracé_239" inkscape:connector-curvature="0" class="st1" d="M336.7,228c-6.9,28.8-21.9,55-43.1,75.6
			C300.6,274.8,315.6,248.7,336.7,228z"/>
		<path id="Tracé_240" inkscape:connector-curvature="0" class="st1" d="M572.7,248.2c-4.6,2.8-9,5.9-13.2,9.3
			c-3.2-4.2-6.4-8.4-10.3-12.5c4.2-3.4,8.6-6.5,13.2-9.3C566.2,239.6,569.6,243.8,572.7,248.2z"/>
		<path id="Tracé_241" inkscape:connector-curvature="0" class="st1" d="M412.2,187.1c11-2.3,22.2-3.5,33.4-3.5
			c11.2,0,22.4,1.2,33.4,3.5c-10.8,3.5-22.1,5.2-33.4,5.1C434.3,192.4,423,190.6,412.2,187.1z"/>
		<path id="Tracé_242" inkscape:connector-curvature="0" class="st2" d="M477.2,158.5c-9.9,4-20.5,6.1-31.2,6.1
			c-10.7,0-21.3-2.1-31.2-6.1c10.3-1.7,20.7-2.5,31.2-2.6C456.4,156,466.9,156.9,477.2,158.5z"/>
	</g>
	<rect id="rect4522" y="-209.5" class="st0" width="751.5" height="712.8"/>
</g>
</svg>
